<?xml version="1.0" encoding="UTF-8" standalone="no"?>
<svg
   xmlns:dc="http://purl.org/dc/elements/1.1/"
   xmlns:cc="http://creativecommons.org/ns#"
   xmlns:rdf="http://www.w3.org/1999/02/22-rdf-syntax-ns#"
   xmlns:svg="http://www.w3.org/2000/svg"
   xmlns="http://www.w3.org/2000/svg"
   xmlns:sodipodi="http://sodipodi.sourceforge.net/DTD/sodipodi-0.dtd"
   xmlns:inkscape="http://www.inkscape.org/namespaces/inkscape"
   version="1.1"
   width="512"
   height="512"
   viewBox="0 0 512 512"
   id="svg2"
   inkscape:version="0.91 r13725"
   sodipodi:docname="antichessgold.svg">
  <metadata
     id="metadata9">
    <rdf:RDF>
      <cc:Work
         rdf:about="">
        <dc:format>image/svg+xml</dc:format>
        <dc:type
           rdf:resource="http://purl.org/dc/dcmitype/StillImage" />
        <dc:title></dc:title>
      </cc:Work>
    </rdf:RDF>
  </metadata>
  <defs
     id="defs7" />
  <sodipodi:namedview
     pagecolor="#ffffff"
     bordercolor="#666666"
     borderopacity="1"
     objecttolerance="10"
     gridtolerance="10"
     guidetolerance="10"
     inkscape:pageopacity="0"
     inkscape:pageshadow="2"
     inkscape:window-width="1366"
     inkscape:window-height="744"
     id="namedview5"
     showgrid="false"
     inkscape:zoom="0.4609375"
     inkscape:cx="256"
     inkscape:cy="256"
     inkscape:window-x="0"
     inkscape:window-y="24"
     inkscape:window-maximized="1"
     inkscape:current-layer="svg2" />
  <path
     d="M223 16C160 19 126 32 118 54C117 57 116 61 116 71C115 91 113 106 109 122C103 144 99 153 70 194C55 216 48 236 48 253C48 274 55 293 70 308C82 320 99 329 116 333C126 334 142 334 151 332C167 329 182 322 196 311C199 310 201 308 201 308C201 308 201 312 201 316C201 332 203 344 208 353C210 357 212 360 218 366C222 370 228 375 232 378L238 382L238 391L238 399L224 407L211 416L210 428L210 441L223 441L236 441L240 453L244 466L267 466L272 453L276 441L289 441L301 441L301 428L301 416L287 407L274 399L274 391L274 382L279 378C287 372 300 360 303 355C307 348 311 332 311 318C312 309 312 307 313 309C314 310 327 319 334 322C349 330 362 334 379 334C399 334 415 329 429 319C436 315 448 302 452 295C465 275 468 251 460 229C455 215 448 202 433 181C420 163 419 161 414 152C403 130 398 106 396 72C395 53 394 50 387 43C379 34 367 28 347 24C320 17 268 14 223 16zM214 72L256 76L298 72C338 69 344 69 350 70C358 72 360 80 353 85C342 93 304 97 248 96C202 95 171 92 159 85C155 83 154 81 154 78C155 73 158 71 165 70C169 69 171 69 214 72zM194 150C206 151 234 155 247 158L255 159L268 157C295 152 318 150 336 149C350 148 364 150 373 154C379 157 397 175 409 190C419 205 430 225 435 237C437 245 437 245 437 255C437 266 436 274 431 282C422 300 403 309 378 310C374 310 368 309 365 309C346 305 327 294 308 275C298 265 292 257 286 245C278 229 274 209 274 190C274 180 270 177 261 175C253 174 244 176 240 179C238 182 237 184 237 191C237 214 229 240 217 259C203 279 180 298 158 306C144 311 122 311 108 306C96 302 86 294 80 283C77 276 75 272 74 261C73 250 73 245 77 235C84 215 103 187 124 165C134 156 137 153 147 151C157 148 173 148 194 150zM157 168C149 169 147 170 137 178C123 188 105 210 96 228C91 238 90 243 89 252C89 264 91 272 99 280C104 285 110 288 120 291C128 293 143 293 151 291C166 286 178 279 191 266C208 247 218 224 220 193C221 183 221 182 220 179C217 174 211 170 200 168C193 167 168 167 157 168zM313 168C300 170 294 174 291 180C290 183 290 184 290 192C292 213 296 226 303 241C308 251 314 259 324 268C336 280 347 287 360 291C365 292 367 292 376 292C389 292 394 291 403 287C408 284 415 278 417 273C420 268 422 257 422 251C422 232 405 205 376 181C364 171 361 169 352 168C342 167 320 167 313 168z"
     id="antichess"
     style="fill:#d59120;fill-opacity:1" />
</svg>
